<svg width="217" height="517" viewBox="0 0 217 517" fill="none" xmlns="http://www.w3.org/2000/svg">
<path opacity="0.3" d="M133.5 30.25V117.5H106L106 30.25L133.5 30.25ZM39 33V0.500001L214 0.500001L214 128.25H186.75V33L39 33ZM39 124.861L214 203.611V235.611L39 314.611V280.611L196.75 212.861V225.861L39 158.361V124.861ZM79.5 161.111L105 169.861L105 264.361L79.5 273.111V161.111ZM36.5 413.926C36.5 400.259 38.75 387.676 43.25 376.176C47.75 364.676 54 354.676 62 346.176C70.1667 337.676 79.6667 331.092 90.5 326.426C101.5 321.759 113.5 319.426 126.5 319.426C139.5 319.426 151.417 321.759 162.25 326.426C173.25 331.092 182.75 337.676 190.75 346.176C198.917 354.676 205.25 364.676 209.75 376.176C214.25 387.676 216.5 400.176 216.5 413.676C216.5 427.342 214.25 439.842 209.75 451.176C205.25 462.676 199 472.676 191 481.176C183 489.676 173.5 496.259 162.5 500.926C151.5 505.592 139.5 507.926 126.5 507.926C113.5 507.926 101.5 505.592 90.5 500.926C79.5 496.259 70 489.676 62 481.176C54 472.676 47.75 462.676 43.25 451.176C38.75 439.842 36.5 427.426 36.5 413.926ZM0.749997 470.926C0.749997 464.759 1.5 458.759 3 452.926C4.33333 447.259 6.66667 441.592 10 435.926C13.1667 430.426 17.4167 424.676 22.75 418.676C27.9167 412.676 34.3333 406.092 42 398.926L51 433.426C44.8333 438.092 39.9167 442.509 36.25 446.676C32.4167 451.009 29.6667 455.176 28 459.176C26.3333 463.176 25.5 467.342 25.5 471.676C25.5 483.176 30.1667 493.176 39.5 501.676L21.5 516.676C7.66666 505.009 0.749997 489.759 0.749997 470.926ZM65 413.676C65 422.509 66.5 430.676 69.5 438.176C72.5 445.676 76.75 452.176 82.25 457.676C87.9167 463.176 94.5 467.426 102 470.426C109.5 473.592 117.667 475.176 126.5 475.176C135.5 475.176 143.667 473.592 151 470.426C158.5 467.426 165 463.176 170.5 457.676C176.167 452.176 180.5 445.676 183.5 438.176C186.5 430.676 188 422.509 188 413.676C188 404.842 186.5 396.676 183.5 389.176C180.5 381.676 176.167 375.176 170.5 369.676C165 364.176 158.5 359.842 151 356.676C143.667 353.676 135.5 352.176 126.5 352.176C117.667 352.176 109.5 353.676 102 356.676C94.5 359.842 87.9167 364.176 82.25 369.676C76.75 375.176 72.5 381.676 69.5 389.176C66.5 396.676 65 404.842 65 413.676Z" fill="url(#paint0_linear_1_2417)"/>
<defs>
<linearGradient id="paint0_linear_1_2417" x1="-29.1037" y1="219.5" x2="214" y2="219.5" gradientUnits="userSpaceOnUse">
<stop stop-color="white"/>
<stop offset="0.0001" stop-color="white"/>
<stop offset="1" stop-color="#DDE4E9"/>
</linearGradient>
</defs>
</svg>
