<svg width="1104" height="146" viewBox="0 0 1104 146" fill="none" xmlns="http://www.w3.org/2000/svg">
<path d="M59.2 145.8C47.8667 145.8 36.8667 144.4 26.2 141.6C15.5333 138.8 6.86667 135.067 0.2 130.4L13.2 101.2C19.4667 105.333 26.7333 108.667 35 111.2C43.2667 113.733 51.4 115 59.4 115C74.6 115 82.2 111.2 82.2 103.6C82.2 99.6 80 96.6667 75.6 94.8C71.3333 92.8 64.4 90.7333 54.8 88.6C44.2667 86.3333 35.4667 83.9333 28.4 81.4C21.3333 78.7333 15.2667 74.5333 10.2 68.8C5.13333 63.0667 2.6 55.3333 2.6 45.6C2.6 37.0667 4.93333 29.4 9.6 22.6C14.2667 15.6667 21.2 10.2 30.4 6.2C39.7333 2.19999 51.1333 0.199991 64.6 0.199991C73.8 0.199991 82.8667 1.26666 91.8 3.4C100.733 5.4 108.6 8.39999 115.4 12.4L103.2 41.8C89.8667 34.6 76.9333 31 64.4 31C56.5333 31 50.8 32.2 47.2 34.6C43.6 36.8667 41.8 39.8667 41.8 43.6C41.8 47.3333 43.9333 50.1333 48.2 52C52.4667 53.8667 59.3333 55.8 68.8 57.8C79.4667 60.0667 88.2667 62.5333 95.2 65.2C102.267 67.7333 108.333 71.8667 113.4 77.6C118.6 83.2 121.2 90.8667 121.2 100.6C121.2 109 118.867 116.6 114.2 123.4C109.533 130.2 102.533 135.667 93.2 139.8C83.8667 143.8 72.5333 145.8 59.2 145.8ZM261.892 112.4V143H149.492V2.99999H259.292V33.6H188.692V57.2H250.892V86.8H188.692V112.4H261.892ZM355.067 105.8H333.467V143H293.867V2.99999H357.867C370.534 2.99999 381.534 5.13332 390.867 9.39999C400.201 13.5333 407.401 19.5333 412.467 27.4C417.534 35.1333 420.067 44.2667 420.067 54.8C420.067 64.9333 417.667 73.8 412.867 81.4C408.201 88.8667 401.467 94.7333 392.667 99L422.867 143H380.467L355.067 105.8ZM380.067 54.8C380.067 48.2667 378.001 43.2 373.867 39.6C369.734 36 363.601 34.2 355.467 34.2H333.467V75.2H355.467C363.601 75.2 369.734 73.4667 373.867 70C378.001 66.4 380.067 61.3333 380.067 54.8ZM593.914 2.99999L533.914 143H494.914L435.114 2.99999H477.914L515.914 94.2L554.714 2.99999H593.914ZM612.109 2.99999H651.709V143H612.109V2.99999ZM759.683 145.8C745.016 145.8 731.816 142.733 720.083 136.6C708.483 130.333 699.349 121.667 692.683 110.6C686.016 99.5333 682.683 87 682.683 73C682.683 59 686.016 46.4667 692.683 35.4C699.349 24.3333 708.483 15.7333 720.083 9.59999C731.816 3.33332 745.016 0.199991 759.683 0.199991C772.483 0.199991 784.016 2.46666 794.283 7C804.549 11.5333 813.083 18.0667 819.883 26.6L794.683 49.4C785.616 38.4667 774.616 33 761.683 33C754.083 33 747.283 34.6667 741.283 38C735.416 41.3333 730.816 46.0667 727.483 52.2C724.283 58.2 722.683 65.1333 722.683 73C722.683 80.8667 724.283 87.8667 727.483 94C730.816 100 735.416 104.667 741.283 108C747.283 111.333 754.083 113 761.683 113C774.616 113 785.616 107.533 794.683 96.6L819.883 119.4C813.083 127.933 804.549 134.467 794.283 139C784.016 143.533 772.483 145.8 759.683 145.8ZM959.939 112.4V143H847.539V2.99999H957.339V33.6H886.739V57.2H948.939V86.8H886.739V112.4H959.939ZM1041.11 145.8C1029.78 145.8 1018.78 144.4 1008.11 141.6C997.447 138.8 988.781 135.067 982.114 130.4L995.114 101.2C1001.38 105.333 1008.65 108.667 1016.91 111.2C1025.18 113.733 1033.31 115 1041.31 115C1056.51 115 1064.11 111.2 1064.11 103.6C1064.11 99.6 1061.91 96.6667 1057.51 94.8C1053.25 92.8 1046.31 90.7333 1036.71 88.6C1026.18 86.3333 1017.38 83.9333 1010.31 81.4C1003.25 78.7333 997.181 74.5333 992.114 68.8C987.047 63.0667 984.514 55.3333 984.514 45.6C984.514 37.0667 986.847 29.4 991.514 22.6C996.181 15.6667 1003.11 10.2 1012.31 6.2C1021.65 2.19999 1033.05 0.199991 1046.51 0.199991C1055.71 0.199991 1064.78 1.26666 1073.71 3.4C1082.65 5.4 1090.51 8.39999 1097.31 12.4L1085.11 41.8C1071.78 34.6 1058.85 31 1046.31 31C1038.45 31 1032.71 32.2 1029.11 34.6C1025.51 36.8667 1023.71 39.8667 1023.71 43.6C1023.71 47.3333 1025.85 50.1333 1030.11 52C1034.38 53.8667 1041.25 55.8 1050.71 57.8C1061.38 60.0667 1070.18 62.5333 1077.11 65.2C1084.18 67.7333 1090.25 71.8667 1095.31 77.6C1100.51 83.2 1103.11 90.8667 1103.11 100.6C1103.11 109 1100.78 116.6 1096.11 123.4C1091.45 130.2 1084.45 135.667 1075.11 139.8C1065.78 143.8 1054.45 145.8 1041.11 145.8Z" fill="#FBFBFB"/>
</svg>
