<svg width="107" height="24" viewBox="0 0 107 24" fill="none" xmlns="http://www.w3.org/2000/svg">
<path d="M8.5 12L0 0L9.5 0L17.5 12L8.5 23.5L0 23.5L8.5 12Z" fill="#C9D3DA"/>
<path d="M61.5 12L53 0L62.5 0L70.5 12L61.5 23.5L53 23.5L61.5 12Z" fill="#C9D3DA"/>
<path d="M26.5 12L18 0L27.5 0L35.5 12L26.5 23.5L18 23.5L26.5 12Z" fill="#C9D3DA"/>
<path d="M79.5 12L71 0L80.5 0L88.5 12L79.5 23.5L71 23.5L79.5 12Z" fill="#C9D3DA"/>
<path d="M44.5 12L36 0L45.5 0L53.5 12L44.5 23.5L36 23.5L44.5 12Z" fill="#C9D3DA"/>
<path d="M97.5 12L89 0L98.5 0L106.5 12L97.5 23.5L89 23.5L97.5 12Z" fill="#C9D3DA"/>
</svg>
