<svg width="45" height="45" viewBox="0 0 45 45" fill="none" xmlns="http://www.w3.org/2000/svg">
<circle cx="22.5" cy="22.5" r="22.5" fill="white"/>
<g clip-path="url(#clip0_676_121)">
<path d="M30.25 18.25V13.75H25.75" stroke="#101010" stroke-width="1.5" stroke-linecap="round" stroke-linejoin="round"/>
<path d="M25 19L30.25 13.75" stroke="#101010" stroke-width="1.5" stroke-linecap="round" stroke-linejoin="round"/>
<path d="M29.5001 25.6901V27.9401C29.5009 28.1489 29.4581 28.3557 29.3745 28.5471C29.2908 28.7385 29.168 28.9103 29.0141 29.0515C28.8602 29.1927 28.6785 29.3002 28.4806 29.3671C28.2828 29.434 28.0731 29.4589 27.8651 29.4401C25.5572 29.1893 23.3403 28.4007 21.3926 27.1376C19.5804 25.9861 18.0441 24.4497 16.8926 22.6376C15.6251 20.681 14.8363 18.4533 14.5901 16.1351C14.5713 15.9277 14.596 15.7186 14.6624 15.5213C14.7289 15.3239 14.8358 15.1426 14.9761 14.9888C15.1165 14.835 15.2874 14.7121 15.4779 14.628C15.6684 14.5438 15.8743 14.5003 16.0826 14.5001H18.3326C18.6966 14.4965 19.0494 14.6254 19.3254 14.8627C19.6014 15.1001 19.7816 15.4297 19.8326 15.7901C19.9275 16.5101 20.1037 17.2171 20.3576 17.8976C20.4585 18.166 20.4803 18.4578 20.4205 18.7382C20.3607 19.0187 20.2217 19.2762 20.0201 19.4801L19.0676 20.4326C20.1352 22.3102 21.6899 23.8649 23.5676 24.9326L24.5201 23.9801C24.724 23.7784 24.9814 23.6395 25.2619 23.5796C25.5424 23.5198 25.8341 23.5417 26.1026 23.6426C26.783 23.8965 27.49 24.0726 28.2101 24.1676C28.5744 24.219 28.9071 24.4025 29.145 24.6832C29.3828 24.9639 29.5092 25.3223 29.5001 25.6901Z" stroke="#101010" stroke-width="1.5" stroke-linecap="round" stroke-linejoin="round"/>
</g>
<defs>
<clipPath id="clip0_676_121">
<rect width="18" height="18" fill="white" transform="translate(13 13)"/>
</clipPath>
</defs>
</svg>
